<?xml version="1.0" encoding="UTF-8"?>
<!DOCTYPE svg PUBLIC "-//W3C//DTD SVG 1.1//EN" "http://www.w3.org/Graphics/SVG/1.1/DTD/svg11.dtd">
<svg xmlns="http://www.w3.org/2000/svg" version="1.1" width="1080px" height="1080px" style="shape-rendering:geometricPrecision; text-rendering:geometricPrecision; image-rendering:optimizeQuality; fill-rule:evenodd; clip-rule:evenodd" xmlns:xlink="http://www.w3.org/1999/xlink">
<g><path style="opacity:0.973" fill="#000000" d="M 633.5,347.5 C 636.874,347.674 640.207,348.174 643.5,349C 654.426,353.018 659.76,360.852 659.5,372.5C 658.706,383.716 655.206,394.049 649,403.5C 632.641,426.967 613.807,448.467 592.5,468C 549.981,505.697 505.314,540.531 458.5,572.5C 458.167,572 457.833,571.5 457.5,571C 491.482,506.166 531.316,445.332 577,388.5C 588.309,375.85 600.809,364.683 614.5,355C 620.509,351.316 626.842,348.816 633.5,347.5 Z"/></g>
<g><path style="opacity:0.94" fill="#000000" d="M 495.5,373.5 C 502.052,373.026 505.885,376.026 507,382.5C 507.748,391.353 506.748,400.019 504,408.5C 493.933,436.965 480.933,463.965 465,489.5C 465.267,460.946 468.933,432.612 476,404.5C 478.516,394.302 483.016,385.136 489.5,377C 491.432,375.541 493.432,374.375 495.5,373.5 Z"/></g>
<g><path style="opacity:0.906" fill="#000000" d="M 432.5,449.5 C 435.972,448.963 438.805,449.963 441,452.5C 442.985,458.823 444.151,465.323 444.5,472C 443.426,488.687 441.092,505.187 437.5,521.5C 432.069,503.419 428.736,484.919 427.5,466C 427.216,459.783 428.882,454.283 432.5,449.5 Z"/></g>
<g><path style="opacity:0.956" fill="#000000" d="M 668.5,490.5 C 675.391,489.901 682.058,490.735 688.5,493C 696.851,501.935 696.184,510.268 686.5,518C 673.803,526.125 660.136,532.125 645.5,536C 610.682,545.247 575.349,551.247 539.5,554C 572.35,532.237 607.016,513.571 643.5,498C 651.819,495.01 660.152,492.51 668.5,490.5 Z"/></g>
<g><path style="opacity:0.911" fill="#000000" d="M 613.5,572.5 C 619.509,572.334 625.509,572.501 631.5,573C 637.964,573.38 641.631,576.713 642.5,583C 641.091,585.879 638.757,587.545 635.5,588C 613.232,589.801 591.232,587.968 569.5,582.5C 584.001,577.872 598.668,574.539 613.5,572.5 Z"/></g>
</svg>
